<svg width="187" height="40" viewBox="0 0 187 40" fill="none" xmlns="http://www.w3.org/2000/svg">
<path d="M34.1422 5.85781C30.3647 2.08031 25.3422 0 20 0C14.6578 0 9.63531 2.08031 5.85781 5.85781C2.08031 9.63531 0 14.6578 0 20C0 25.3422 2.08039 30.3646 5.85781 34.1422C9.63523 37.9198 14.6578 40 20 40C25.3422 40 30.3647 37.9197 34.1422 34.1422C37.9197 30.3647 40 25.3422 40 20C40 14.6578 37.9196 9.63539 34.1422 5.85781Z" fill="#33CC95"/>
<g clip-path="url(#clip0_85212_179)">
<path d="M20.5714 8V33.1429" stroke="white" stroke-width="2" stroke-linecap="round" stroke-linejoin="round"/>
<path d="M26.2857 12.5714H17.7143C16.6534 12.5714 15.636 12.9929 14.8859 13.743C14.1357 14.4931 13.7143 15.5106 13.7143 16.5714C13.7143 17.6323 14.1357 18.6497 14.8859 19.3999C15.636 20.15 16.6534 20.5714 17.7143 20.5714H23.4286C24.4894 20.5714 25.5069 20.9929 26.257 21.743C27.0072 22.4931 27.4286 23.5106 27.4286 24.5714C27.4286 25.6323 27.0072 26.6497 26.257 27.3999C25.5069 28.15 24.4894 28.5714 23.4286 28.5714H13.7143" stroke="white" stroke-width="2" stroke-linecap="round" stroke-linejoin="round"/>
</g>
<path d="M67.056 13.248V15.96H62.592V30H59.232V15.96H54.768V13.248H67.056ZM76.9956 16.512C78.0036 16.512 78.8996 16.736 79.6836 17.184C80.4676 17.616 81.0756 18.264 81.5076 19.128C81.9556 19.976 82.1796 21 82.1796 22.2V30H78.8196V22.656C78.8196 21.6 78.5556 20.792 78.0276 20.232C77.4996 19.656 76.7796 19.368 75.8676 19.368C74.9396 19.368 74.2036 19.656 73.6596 20.232C73.1316 20.792 72.8676 21.6 72.8676 22.656V30H69.5076V12.24H72.8676V18.36C73.2996 17.784 73.8756 17.336 74.5956 17.016C75.3156 16.68 76.1156 16.512 76.9956 16.512ZM97.7348 23.064C97.7348 23.544 97.7028 23.976 97.6388 24.36H87.9188C87.9988 25.32 88.3348 26.072 88.9268 26.616C89.5188 27.16 90.2468 27.432 91.1108 27.432C92.3588 27.432 93.2468 26.896 93.7748 25.824H97.3988C97.0148 27.104 96.2788 28.16 95.1908 28.992C94.1028 29.808 92.7668 30.216 91.1828 30.216C89.9028 30.216 88.7508 29.936 87.7268 29.376C86.7188 28.8 85.9268 27.992 85.3508 26.952C84.7908 25.912 84.5107 24.712 84.5107 23.352C84.5107 21.976 84.7908 20.768 85.3508 19.728C85.9108 18.688 86.6948 17.888 87.7028 17.328C88.7108 16.768 89.8708 16.488 91.1828 16.488C92.4468 16.488 93.5748 16.76 94.5668 17.304C95.5748 17.848 96.3508 18.624 96.8948 19.632C97.4548 20.624 97.7348 21.768 97.7348 23.064ZM94.2548 22.104C94.2388 21.24 93.9268 20.552 93.3188 20.04C92.7108 19.512 91.9668 19.248 91.0868 19.248C90.2548 19.248 89.5508 19.504 88.9748 20.016C88.4148 20.512 88.0708 21.208 87.9428 22.104H94.2548ZM124.17 13.248V30H120.81V19.104L116.322 30H113.778L109.266 19.104V30H105.906V13.248H109.722L115.05 25.704L120.378 13.248H124.17ZM133.396 30.216C132.116 30.216 130.964 29.936 129.94 29.376C128.916 28.8 128.108 27.992 127.516 26.952C126.94 25.912 126.652 24.712 126.652 23.352C126.652 21.992 126.948 20.792 127.54 19.752C128.148 18.712 128.972 17.912 130.012 17.352C131.052 16.776 132.212 16.488 133.492 16.488C134.772 16.488 135.932 16.776 136.972 17.352C138.012 17.912 138.828 18.712 139.42 19.752C140.028 20.792 140.332 21.992 140.332 23.352C140.332 24.712 140.02 25.912 139.396 26.952C138.788 27.992 137.956 28.8 136.9 29.376C135.86 29.936 134.692 30.216 133.396 30.216ZM133.396 27.288C134.004 27.288 134.572 27.144 135.1 26.856C135.644 26.552 136.076 26.104 136.396 25.512C136.716 24.92 136.876 24.2 136.876 23.352C136.876 22.088 136.54 21.12 135.868 20.448C135.212 19.76 134.404 19.416 133.444 19.416C132.484 19.416 131.676 19.76 131.02 20.448C130.38 21.12 130.06 22.088 130.06 23.352C130.06 24.616 130.372 25.592 130.996 26.28C131.636 26.952 132.436 27.288 133.396 27.288ZM150.165 16.512C151.749 16.512 153.029 17.016 154.005 18.024C154.981 19.016 155.469 20.408 155.469 22.2V30H152.109V22.656C152.109 21.6 151.845 20.792 151.317 20.232C150.789 19.656 150.069 19.368 149.157 19.368C148.229 19.368 147.493 19.656 146.949 20.232C146.421 20.792 146.157 21.6 146.157 22.656V30H142.797V16.704H146.157V18.36C146.605 17.784 147.173 17.336 147.861 17.016C148.565 16.68 149.333 16.512 150.165 16.512ZM171.024 23.064C171.024 23.544 170.992 23.976 170.928 24.36H161.208C161.288 25.32 161.624 26.072 162.216 26.616C162.808 27.16 163.536 27.432 164.4 27.432C165.648 27.432 166.536 26.896 167.064 25.824H170.688C170.304 27.104 169.568 28.16 168.48 28.992C167.392 29.808 166.056 30.216 164.472 30.216C163.192 30.216 162.04 29.936 161.016 29.376C160.008 28.8 159.216 27.992 158.64 26.952C158.08 25.912 157.8 24.712 157.8 23.352C157.8 21.976 158.08 20.768 158.64 19.728C159.2 18.688 159.984 17.888 160.992 17.328C162 16.768 163.16 16.488 164.472 16.488C165.736 16.488 166.864 16.76 167.856 17.304C168.864 17.848 169.64 18.624 170.184 19.632C170.744 20.624 171.024 21.768 171.024 23.064ZM167.544 22.104C167.528 21.24 167.216 20.552 166.608 20.04C166 19.512 165.256 19.248 164.376 19.248C163.544 19.248 162.84 19.504 162.264 20.016C161.704 20.512 161.36 21.208 161.232 22.104H167.544ZM186.196 16.704L177.964 36.288H174.388L177.268 29.664L171.94 16.704H175.708L179.14 25.992L182.62 16.704H186.196Z" fill="white"/>
<defs>
<clipPath id="clip0_85212_179">
<rect width="27.4286" height="27.4286" fill="white" transform="translate(6.85715 6.85714)"/>
</clipPath>
</defs>
</svg>
